<svg width="64" height="64" viewBox="0 0 64 64" fill="none" xmlns="http://www.w3.org/2000/svg">
<defs>
<linearGradient id="grad1" x1="0%" y1="0%" x2="100%" y2="100%">
<stop offset="0%" style="stop-color:#7C3AED;stop-opacity:1" />
<stop offset="100%" style="stop-color:#472187;stop-opacity:1" />
</linearGradient>
</defs>
<rect width="64" height="64" rx="16" fill="url(#grad1)" />
<g transform="translate(14, 14) scale(1.5)">
<path d="M16 16v2a2 2 0 0 1 -2 2h-8a2 2 0 0 1 -2 -2v-8a2 2 0 0 1 2 -2h2v-2a2 2 0 0 1 2 -2h8a2 2 0 0 1 2 2v8a2 2 0 0 1 -2 2h-2" stroke="white" stroke-width="2" stroke-linecap="round" stroke-linejoin="round"/>
</g>
</svg>
